<svg width="15" height="16" viewBox="0 0 15 16" fill="none" xmlns="http://www.w3.org/2000/svg">
<path fill-rule="evenodd" clip-rule="evenodd" d="M7.5 15.5C11.6421 15.5 15 12.1421 15 8C15 3.85786 11.6421 0.5 7.5 0.5C3.35786 0.5 0 3.85786 0 8C0 12.1421 3.35786 15.5 7.5 15.5Z" fill="#DB3056"/>
<path fill-rule="evenodd" clip-rule="evenodd" d="M7.5 3.5C7.77614 3.5 8 3.72386 8 4V10C8 10.2761 7.77614 10.5 7.5 10.5C7.22386 10.5 7 10.2761 7 10V4C7 3.72386 7.22386 3.5 7.5 3.5Z" fill="white"/>
<path d="M8 12C8 12.2761 7.77614 12.5 7.5 12.5C7.22386 12.5 7 12.2761 7 12C7 11.7239 7.22386 11.5 7.5 11.5C7.77614 11.5 8 11.7239 8 12Z" fill="white"/>
</svg>
