<?xml version="1.0" encoding="utf-8" standalone="yes"?><svg xmlns="http://www.w3.org/2000/svg" viewBox="41.064 130.537 417.713 70.416" width="417.713" height="70.416"><path shape-rendering="geometricPrecision" d="M72.384,144.217 Q69.648,142.777 66.48,141.769 Q63.312,140.761 60.36,140.761 Q56.328,140.761 53.952,142.597 Q51.576,144.433 51.576,147.601 Q51.576,149.833 53.16,151.489 Q54.744,153.145 57.264,154.369 Q59.784,155.593 62.592,156.673 Q64.968,157.537 67.308,158.725 Q69.648,159.913 71.556,161.641 Q73.464,163.369 74.58,165.925 Q75.696,168.481 75.696,172.153 Q75.696,176.329 73.644,179.713 Q71.592,183.097 67.74,185.077 Q63.888,187.057 58.416,187.057 Q55.104,187.057 51.972,186.301 Q48.84,185.545 46.068,184.285 Q43.296,183.025 41.064,181.513 L44.52,175.537 Q46.248,176.761 48.48,177.877 Q50.712,178.993 53.124,179.641 Q55.536,180.289 57.696,180.289 Q60.072,180.289 62.376,179.461 Q64.68,178.633 66.192,176.869 Q67.704,175.105 67.704,172.225 Q67.704,169.777 66.372,168.085 Q65.04,166.393 62.844,165.169 Q60.648,163.945 58.128,163.009 Q55.68,162.073 53.16,160.921 Q50.64,159.769 48.48,158.149 Q46.32,156.529 44.988,154.117 Q43.656,151.705 43.656,148.177 Q43.656,144.001 45.636,140.869 Q47.616,137.737 51.144,135.937 Q54.672,134.137 59.28,133.921 Q64.536,133.921 68.424,135.217 Q72.312,136.513 75.336,138.313 M81.411,156.313 L88.827,156.313 L88.827,186.481 L81.411,186.481 M102.759,156.313 L103.407,162.793 L103.119,162.289 Q104.847,158.905 107.871,156.997 Q110.895,155.089 114.855,155.089 Q117.303,155.089 119.283,155.881 Q121.263,156.673 122.559,158.113 Q123.855,159.553 124.215,161.713 L123.855,161.929 Q125.655,158.761 128.643,156.925 Q131.631,155.089 135.015,155.089 Q139.407,155.089 142.035,157.609 Q144.663,160.129 144.735,164.089 L144.735,186.481 L137.391,186.481 L137.391,166.897 Q137.319,164.665 136.347,163.153 Q135.375,161.641 132.927,161.497 Q130.335,161.497 128.355,163.081 Q126.375,164.665 125.295,167.185 Q124.215,169.705 124.143,172.585 L124.143,186.481 L116.727,186.481 L116.727,166.897 Q116.655,164.665 115.647,163.153 Q114.639,161.641 112.119,161.497 Q109.527,161.497 107.583,163.081 Q105.639,164.665 104.595,167.221 Q103.551,169.777 103.551,172.585 L103.551,186.481 L96.135,186.481 L96.135,156.313 M170.18,187.201 Q166.868,187.201 163.844,185.725 Q160.82,184.249 159.02,181.729 L159.452,179.497 L159.452,200.953 L152.108,200.953 L152.108,155.809 L158.516,155.809 L159.524,163.153 L158.732,161.065 Q160.964,158.473 164.24,156.745 Q167.516,155.017 171.548,155.017 Q175.796,155.017 179.18,157.033 Q182.564,159.049 184.508,162.721 Q186.452,166.393 186.452,171.361 Q186.452,176.257 184.328,179.821 Q182.204,183.385 178.532,185.293 Q174.86,187.201 170.18,187.201 M168.74,181.369 Q171.476,181.369 173.816,180.073 Q176.156,178.777 177.56,176.509 Q178.964,174.241 178.964,171.433 Q178.964,168.481 177.632,166.213 Q176.3,163.945 174.104,162.649 Q171.908,161.353 169.244,161.353 Q166.724,161.353 164.78,162.253 Q162.836,163.153 161.468,164.737 Q160.1,166.321 159.524,168.553 L159.524,174.097 Q159.956,176.185 161.252,177.841 Q162.548,179.497 164.492,180.433 Q166.436,181.369 168.74,181.369 M191.232,130.537 L198.648,130.537 L198.648,186.481 L191.232,186.481 M220.14,187.201 Q214.884,187.201 211.14,185.149 Q207.396,183.097 205.38,179.461 Q203.364,175.825 203.364,171.145 Q203.364,166.681 205.632,163.045 Q207.9,159.409 211.752,157.249 Q215.604,155.089 220.284,155.089 Q226.332,155.089 230.328,158.617 Q234.324,162.145 235.692,168.481 L211.14,176.977 L209.412,172.657 L229.068,165.601 L227.556,166.537 Q226.692,164.305 224.82,162.613 Q222.948,160.921 219.708,160.921 Q217.116,160.921 215.064,162.181 Q213.012,163.441 211.824,165.637 Q210.636,167.833 210.636,170.785 Q210.636,173.809 211.896,176.077 Q213.156,178.345 215.352,179.641 Q217.548,180.937 220.284,180.937 Q222.228,180.937 223.992,180.217 Q225.756,179.497 227.34,178.417 L230.724,183.889 Q228.348,185.401 225.576,186.301 Q222.804,187.201 220.14,187.201 M280.068,182.521 Q278.916,183.313 276.648,184.429 Q274.38,185.545 271.32,186.337 Q268.26,187.129 264.588,187.057 Q258.468,186.985 253.608,184.897 Q248.748,182.809 245.364,179.173 Q241.98,175.537 240.144,170.821 Q238.308,166.105 238.308,160.777 Q238.308,154.873 240.18,149.941 Q242.052,145.009 245.544,141.337 Q249.036,137.665 253.752,135.649 Q258.468,133.633 264.084,133.633 Q268.908,133.633 272.796,134.929 Q276.684,136.225 279.348,137.953 L276.324,145.153 Q274.236,143.713 271.176,142.381 Q268.116,141.049 264.372,141.049 Q260.7,141.049 257.424,142.525 Q254.148,144.001 251.664,146.629 Q249.18,149.257 247.74,152.749 Q246.3,156.241 246.3,160.345 Q246.3,164.521 247.596,168.049 Q248.892,171.577 251.304,174.169 Q253.716,176.761 257.1,178.201 Q260.484,179.641 264.732,179.641 Q268.764,179.641 271.824,178.417 Q274.884,177.193 276.828,175.609 M285.936,130.537 L293.352,130.537 L293.352,186.481 L285.936,186.481 M298.059,171.073 Q298.059,166.537 300.219,162.901 Q302.379,159.265 306.195,157.177 Q310.011,155.089 314.907,155.089 Q319.875,155.089 323.619,157.177 Q327.363,159.265 329.415,162.901 Q331.467,166.537 331.467,171.073 Q331.467,175.609 329.415,179.281 Q327.363,182.953 323.619,185.077 Q319.875,187.201 314.835,187.201 Q310.011,187.201 306.231,185.257 Q302.451,183.313 300.255,179.677 Q298.059,176.041 298.059,171.073 M305.547,171.145 Q305.547,173.953 306.771,176.221 Q307.995,178.489 310.083,179.821 Q312.171,181.153 314.763,181.153 Q317.427,181.153 319.515,179.821 Q321.603,178.489 322.791,176.221 Q323.979,173.953 323.979,171.145 Q323.979,168.337 322.791,166.105 Q321.603,163.873 319.515,162.505 Q317.427,161.137 314.763,161.137 Q312.099,161.137 310.011,162.505 Q307.923,163.873 306.735,166.141 Q305.547,168.409 305.547,171.145 M345.042,187.129 Q341.73,187.129 338.634,185.941 Q335.538,184.753 333.522,182.449 L336.69,178.273 Q338.634,180.073 340.614,180.973 Q342.594,181.873 344.394,181.873 Q345.834,181.873 346.986,181.549 Q348.138,181.225 348.858,180.433 Q349.578,179.641 349.578,178.345 Q349.578,176.833 348.57,175.969 Q347.562,175.105 345.978,174.529 Q344.394,173.953 342.594,173.449 Q338.778,172.225 336.834,169.957 Q334.89,167.689 334.89,164.593 Q334.89,162.217 336.078,160.093 Q337.266,157.969 339.714,156.601 Q342.162,155.233 345.762,155.233 Q349.074,155.233 351.594,155.989 Q354.114,156.745 356.274,158.545 L353.394,163.009 Q352.098,161.713 350.334,161.029 Q348.57,160.345 347.13,160.273 Q345.834,160.273 344.754,160.669 Q343.674,161.065 343.026,161.821 Q342.378,162.577 342.378,163.585 Q342.306,165.025 343.35,165.925 Q344.394,166.825 346.05,167.365 Q347.706,167.905 349.29,168.481 Q351.522,169.129 353.25,170.245 Q354.978,171.361 355.986,172.945 Q356.994,174.529 356.994,176.977 Q356.994,179.641 355.698,181.981 Q354.402,184.321 351.738,185.725 Q349.074,187.129 345.042,187.129 M371.784,187.705 Q367.608,187.705 364.944,185.185 Q362.28,182.665 362.136,178.705 L362.136,156.313 L369.552,156.313 L369.552,176.041 Q369.696,178.345 370.884,179.821 Q372.072,181.297 374.736,181.369 Q377.184,181.369 379.092,179.893 Q381,178.417 382.116,175.861 Q383.232,173.305 383.232,169.993 L383.232,156.313 L390.648,156.313 L390.648,186.481 L383.952,186.481 L383.376,179.497 L383.664,180.649 Q382.728,182.665 381,184.285 Q379.272,185.905 376.896,186.805 Q374.52,187.705 371.784,187.705 M404.647,156.313 L405.367,164.953 L405.007,163.801 Q406.231,161.065 408.463,159.121 Q410.695,157.177 413.107,156.133 Q415.519,155.089 417.175,155.089 L416.815,162.433 Q413.359,162.217 410.803,163.729 Q408.247,165.241 406.807,167.761 Q405.367,170.281 405.367,173.161 L405.367,186.481 L398.023,186.481 L398.023,156.313 M434.481,187.201 Q429.225,187.201 425.481,185.149 Q421.737,183.097 419.721,179.461 Q417.705,175.825 417.705,171.145 Q417.705,166.681 419.973,163.045 Q422.241,159.409 426.093,157.249 Q429.945,155.089 434.625,155.089 Q440.673,155.089 444.669,158.617 Q448.665,162.145 450.033,168.481 L425.481,176.977 L423.753,172.657 L443.409,165.601 L441.897,166.537 Q441.033,164.305 439.161,162.613 Q437.289,160.921 434.049,160.921 Q431.457,160.921 429.405,162.181 Q427.353,163.441 426.165,165.637 Q424.977,167.833 424.977,170.785 Q424.977,173.809 426.237,176.077 Q427.497,178.345 429.693,179.641 Q431.889,180.937 434.625,180.937 Q436.569,180.937 438.333,180.217 Q440.097,179.497 441.681,178.417 L445.065,183.889 Q442.689,185.401 439.917,186.301 Q437.145,187.201 434.481,187.201" style="fill: #1C1823;"></path><circle stroke="none" id="circle1" cy="146.412px" fill="#1C1823" r="4.2px" cx="85.124px" transform=""></circle><circle stroke="none" id="circle2" cy="182.350006px" fill="#dfb995" r="4.9px" cx="453.755005px" transform=""></circle></svg>