<svg width="51" height="54" viewBox="0 0 51 54" fill="none" xmlns="http://www.w3.org/2000/svg">
<g id="a" clip-path="url(#clip0_3194_5647)">
<path id="Vector" d="M21.9088 44.1486C33.7735 44.1486 43.3918 34.5303 43.3918 22.6656C43.3918 10.8009 33.7735 1.18262 21.9088 1.18262C10.044 1.18262 0.425781 10.8009 0.425781 22.6656C0.425781 34.5303 10.044 44.1486 21.9088 44.1486Z" stroke="#1E1928" stroke-linecap="round" stroke-linejoin="round"/>
<path id="Vector_2" d="M37.6489 37.6697L49.3229 49.4917C50.1099 50.2887 50.0669 51.5837 49.2289 52.3267C48.4499 53.0177 47.2659 52.9757 46.5369 52.2327L34.5469 39.9957" stroke="#1E1928" stroke-linecap="round" stroke-linejoin="round"/>
<g id="Group 816">
<path id="Vector_3" d="M17.6469 15.4371C18.7432 14.3183 20.2444 13.7566 22.158 13.7566C23.9259 13.7566 25.3432 14.2354 26.405 15.193C27.4692 16.1505 28 17.3736 28 18.8645C28 19.7676 27.8074 20.5 27.4222 21.0618C27.037 21.6235 26.2469 22.4484 25.0518 23.5387C24.1827 24.3303 23.6173 25.0011 23.3531 25.5486C23.0913 26.0985 22.9605 26.9092 22.9605 27.9805H20.5926C20.5926 26.7622 20.7432 25.7833 21.0444 25.0366C21.3457 24.2923 22.0148 23.4391 23.0568 22.4767L24.1407 21.4693C24.4666 21.1802 24.7308 20.8768 24.9333 20.5615C25.3012 20.0092 25.4864 19.4333 25.4864 18.8384C25.4864 18.004 25.2222 17.2811 24.6913 16.6672C24.1629 16.0533 23.2864 15.7476 22.0642 15.7476C20.5531 15.7476 19.5061 16.2761 18.9259 17.3309C18.6 17.9188 18.4148 18.7649 18.3679 19.8718H16C16.0025 18.0349 16.5506 16.5582 17.6469 15.4371ZM20.5382 30.1019H23.1852V32.7566H20.5382V30.1019Z" fill="#828282"/>
</g>
</g>
<defs>
<clipPath id="clip0_3194_5647">
<rect width="50.312" height="52.487" fill="white" transform="translate(0 0.756592)"/>
</clipPath>
</defs>
</svg>